<mxfile host="app.diagrams.net" modified="2023-04-25T12:50:32.750Z" agent="Mozilla/5.0 (Windows NT 10.0; Win64; x64; rv:109.0) Gecko/20100101 Firefox/113.0" etag="Un8RF20QMs7MiO8wFbVs" version="21.2.1" type="device">
  <diagram name="第 1 页" id="TkR4nbJhcSqamtAGRPtO">
    <mxGraphModel dx="1075" dy="2126" grid="1" gridSize="10" guides="1" tooltips="1" connect="1" arrows="1" fold="1" page="1" pageScale="1" pageWidth="1169" pageHeight="827" math="0" shadow="0">
      <root>
        <mxCell id="0" />
        <mxCell id="1" parent="0" />
        <mxCell id="Rk8nBQ4phRoIfl6CPApI-39" style="edgeStyle=orthogonalEdgeStyle;rounded=1;orthogonalLoop=1;jettySize=auto;html=1;exitX=0.25;exitY=0;exitDx=0;exitDy=0;entryX=0;entryY=0.25;entryDx=0;entryDy=0;labelBackgroundColor=none;strokeColor=#A8201A;fontColor=default;" parent="1" source="Rk8nBQ4phRoIfl6CPApI-23" target="Rk8nBQ4phRoIfl6CPApI-3" edge="1">
          <mxGeometry relative="1" as="geometry" />
        </mxCell>
        <mxCell id="Rk8nBQ4phRoIfl6CPApI-43" value="[cnt == 10 &amp;amp;&amp;amp; Pin == 1]" style="edgeLabel;html=1;align=center;verticalAlign=middle;resizable=0;points=[];labelBackgroundColor=none;fontColor=#143642;rounded=1;" parent="Rk8nBQ4phRoIfl6CPApI-39" vertex="1" connectable="0">
          <mxGeometry x="-0.2171" y="-2" relative="1" as="geometry">
            <mxPoint x="92" y="-15" as="offset" />
          </mxGeometry>
        </mxCell>
        <mxCell id="Rk8nBQ4phRoIfl6CPApI-52" style="edgeStyle=orthogonalEdgeStyle;rounded=1;orthogonalLoop=1;jettySize=auto;html=1;exitX=0;exitY=0.5;exitDx=0;exitDy=0;labelBackgroundColor=none;strokeColor=#A8201A;fontColor=default;" parent="1" source="Rk8nBQ4phRoIfl6CPApI-3" target="Rk8nBQ4phRoIfl6CPApI-23" edge="1">
          <mxGeometry relative="1" as="geometry" />
        </mxCell>
        <mxCell id="Rk8nBQ4phRoIfl6CPApI-53" value="[Pin == 0]" style="edgeLabel;html=1;align=center;verticalAlign=middle;resizable=0;points=[];labelBackgroundColor=none;fontColor=#143642;rounded=1;" parent="Rk8nBQ4phRoIfl6CPApI-52" vertex="1" connectable="0">
          <mxGeometry x="-0.2093" y="2" relative="1" as="geometry">
            <mxPoint y="-7" as="offset" />
          </mxGeometry>
        </mxCell>
        <mxCell id="Rk8nBQ4phRoIfl6CPApI-3" value="按键抬起" style="swimlane;whiteSpace=wrap;html=1;labelBackgroundColor=none;fillColor=#FAE5C7;strokeColor=#0F8B8D;fontColor=#143642;rounded=1;" parent="1" vertex="1">
          <mxGeometry x="470" y="-1410" width="210" height="90" as="geometry" />
        </mxCell>
        <mxCell id="Rk8nBQ4phRoIfl6CPApI-4" value="&lt;div align=&quot;left&quot;&gt;Entry: action = KEY_Action_Up&lt;br&gt;&lt;/div&gt;&lt;div align=&quot;left&quot;&gt;Do:&amp;nbsp;&amp;nbsp;&amp;nbsp;&amp;nbsp; &lt;br&gt;&lt;/div&gt;&lt;div align=&quot;left&quot;&gt;Exit:&lt;br&gt;&lt;/div&gt;" style="text;html=1;align=left;verticalAlign=middle;resizable=0;points=[];autosize=1;strokeColor=none;fillColor=none;labelBackgroundColor=none;fontColor=#143642;rounded=1;" parent="Rk8nBQ4phRoIfl6CPApI-3" vertex="1">
          <mxGeometry x="10" y="20" width="180" height="60" as="geometry" />
        </mxCell>
        <mxCell id="Rk8nBQ4phRoIfl6CPApI-5" value="" style="ellipse;html=1;shape=startState;fillColor=#FAE5C7;strokeColor=#0F8B8D;labelBackgroundColor=none;fontColor=#143642;rounded=1;" parent="1" vertex="1">
          <mxGeometry x="562" y="-1470" width="26" height="30" as="geometry" />
        </mxCell>
        <mxCell id="Rk8nBQ4phRoIfl6CPApI-6" value="" style="edgeStyle=orthogonalEdgeStyle;html=1;verticalAlign=bottom;endArrow=open;endSize=8;strokeColor=#A8201A;rounded=1;entryX=0.5;entryY=0;entryDx=0;entryDy=0;labelBackgroundColor=none;fontColor=default;" parent="1" source="Rk8nBQ4phRoIfl6CPApI-5" target="Rk8nBQ4phRoIfl6CPApI-3" edge="1">
          <mxGeometry relative="1" as="geometry">
            <mxPoint x="560" y="-1470" as="targetPoint" />
          </mxGeometry>
        </mxCell>
        <mxCell id="Rk8nBQ4phRoIfl6CPApI-42" style="edgeStyle=orthogonalEdgeStyle;rounded=1;orthogonalLoop=1;jettySize=auto;html=1;exitX=0.5;exitY=0;exitDx=0;exitDy=0;entryX=1;entryY=0.5;entryDx=0;entryDy=0;labelBackgroundColor=none;strokeColor=#A8201A;fontColor=default;" parent="1" source="Rk8nBQ4phRoIfl6CPApI-11" target="Rk8nBQ4phRoIfl6CPApI-3" edge="1">
          <mxGeometry relative="1" as="geometry" />
        </mxCell>
        <mxCell id="Rk8nBQ4phRoIfl6CPApI-48" value="[cnt == 10 &amp;amp;&amp;amp; Pin == 1]" style="edgeLabel;html=1;align=center;verticalAlign=middle;resizable=0;points=[];labelBackgroundColor=none;fontColor=#143642;rounded=1;" parent="Rk8nBQ4phRoIfl6CPApI-42" vertex="1" connectable="0">
          <mxGeometry x="0.4741" relative="1" as="geometry">
            <mxPoint x="16" y="-15" as="offset" />
          </mxGeometry>
        </mxCell>
        <mxCell id="Rk8nBQ4phRoIfl6CPApI-46" style="edgeStyle=orthogonalEdgeStyle;rounded=1;orthogonalLoop=1;jettySize=auto;html=1;exitX=0.75;exitY=1;exitDx=0;exitDy=0;entryX=1;entryY=0.75;entryDx=0;entryDy=0;labelBackgroundColor=none;strokeColor=#A8201A;fontColor=default;" parent="1" source="Rk8nBQ4phRoIfl6CPApI-11" target="Rk8nBQ4phRoIfl6CPApI-17" edge="1">
          <mxGeometry relative="1" as="geometry" />
        </mxCell>
        <mxCell id="Rk8nBQ4phRoIfl6CPApI-50" value="[cnt == 10 &amp;amp;&amp;amp; Pin == 0]" style="edgeLabel;html=1;align=center;verticalAlign=middle;resizable=0;points=[];labelBackgroundColor=none;fontColor=#143642;rounded=1;" parent="Rk8nBQ4phRoIfl6CPApI-46" vertex="1" connectable="0">
          <mxGeometry x="0.4159" y="2" relative="1" as="geometry">
            <mxPoint x="8" y="-9" as="offset" />
          </mxGeometry>
        </mxCell>
        <mxCell id="Rk8nBQ4phRoIfl6CPApI-11" value="按键预抬起" style="swimlane;whiteSpace=wrap;html=1;labelBackgroundColor=none;fillColor=#FAE5C7;strokeColor=#0F8B8D;fontColor=#143642;rounded=1;" parent="1" vertex="1">
          <mxGeometry x="720" y="-1290" width="180" height="90" as="geometry" />
        </mxCell>
        <mxCell id="Rk8nBQ4phRoIfl6CPApI-12" value="&lt;div align=&quot;left&quot;&gt;Entry: cnt = 0;&lt;br&gt;&lt;/div&gt;&lt;div align=&quot;left&quot;&gt;Do:&amp;nbsp;&amp;nbsp;&amp;nbsp;&amp;nbsp; cnt++&lt;br&gt;&lt;/div&gt;&lt;div align=&quot;left&quot;&gt;Exit:&lt;br&gt;&lt;/div&gt;" style="text;html=1;align=left;verticalAlign=middle;resizable=0;points=[];autosize=1;strokeColor=none;fillColor=none;labelBackgroundColor=none;fontColor=#143642;rounded=1;" parent="Rk8nBQ4phRoIfl6CPApI-11" vertex="1">
          <mxGeometry x="10" y="20" width="100" height="60" as="geometry" />
        </mxCell>
        <mxCell id="Rk8nBQ4phRoIfl6CPApI-41" style="edgeStyle=orthogonalEdgeStyle;rounded=1;orthogonalLoop=1;jettySize=auto;html=1;exitX=1;exitY=0.5;exitDx=0;exitDy=0;entryX=0.5;entryY=1;entryDx=0;entryDy=0;labelBackgroundColor=none;strokeColor=#A8201A;fontColor=default;" parent="1" source="Rk8nBQ4phRoIfl6CPApI-17" target="Rk8nBQ4phRoIfl6CPApI-11" edge="1">
          <mxGeometry relative="1" as="geometry" />
        </mxCell>
        <mxCell id="Rk8nBQ4phRoIfl6CPApI-51" value="[Pin == 1]" style="edgeLabel;html=1;align=center;verticalAlign=middle;resizable=0;points=[];labelBackgroundColor=none;fontColor=#143642;rounded=1;" parent="Rk8nBQ4phRoIfl6CPApI-41" vertex="1" connectable="0">
          <mxGeometry x="-0.4186" y="-1" relative="1" as="geometry">
            <mxPoint x="-2" y="-6" as="offset" />
          </mxGeometry>
        </mxCell>
        <mxCell id="Rk8nBQ4phRoIfl6CPApI-17" value="按键按下" style="swimlane;whiteSpace=wrap;html=1;labelBackgroundColor=none;fillColor=#FAE5C7;strokeColor=#0F8B8D;fontColor=#143642;rounded=1;" parent="1" vertex="1">
          <mxGeometry x="470" y="-1160" width="210" height="90" as="geometry" />
        </mxCell>
        <mxCell id="Rk8nBQ4phRoIfl6CPApI-18" value="&lt;div align=&quot;left&quot;&gt;Entry: action = KEY_Action_Down&lt;/div&gt;&lt;div align=&quot;left&quot;&gt;Do:&lt;/div&gt;&lt;div align=&quot;left&quot;&gt;Exit:&lt;/div&gt;" style="text;html=1;align=left;verticalAlign=middle;resizable=0;points=[];autosize=1;strokeColor=none;fillColor=none;labelBackgroundColor=none;fontColor=#143642;rounded=1;" parent="Rk8nBQ4phRoIfl6CPApI-17" vertex="1">
          <mxGeometry x="10" y="20" width="200" height="60" as="geometry" />
        </mxCell>
        <mxCell id="Rk8nBQ4phRoIfl6CPApI-40" style="edgeStyle=orthogonalEdgeStyle;rounded=1;orthogonalLoop=1;jettySize=auto;html=1;exitX=0.5;exitY=1;exitDx=0;exitDy=0;entryX=0;entryY=0.5;entryDx=0;entryDy=0;labelBackgroundColor=none;strokeColor=#A8201A;fontColor=default;" parent="1" source="Rk8nBQ4phRoIfl6CPApI-23" target="Rk8nBQ4phRoIfl6CPApI-17" edge="1">
          <mxGeometry relative="1" as="geometry" />
        </mxCell>
        <mxCell id="Rk8nBQ4phRoIfl6CPApI-49" value="[cnt == 10 &amp;amp;&amp;amp; Pin == 0]" style="edgeLabel;html=1;align=center;verticalAlign=middle;resizable=0;points=[];labelBackgroundColor=none;fontColor=#143642;rounded=1;" parent="Rk8nBQ4phRoIfl6CPApI-40" vertex="1" connectable="0">
          <mxGeometry x="0.252" relative="1" as="geometry">
            <mxPoint x="7" y="15" as="offset" />
          </mxGeometry>
        </mxCell>
        <mxCell id="Rk8nBQ4phRoIfl6CPApI-23" value="按键预按下" style="swimlane;whiteSpace=wrap;html=1;labelBackgroundColor=none;fillColor=#FAE5C7;strokeColor=#0F8B8D;fontColor=#143642;rounded=1;" parent="1" vertex="1">
          <mxGeometry x="250" y="-1280" width="180" height="90" as="geometry" />
        </mxCell>
        <mxCell id="Rk8nBQ4phRoIfl6CPApI-24" value="&lt;div align=&quot;left&quot;&gt;Entry: cnt = 0;&lt;br&gt;&lt;/div&gt;&lt;div align=&quot;left&quot;&gt;Do:&amp;nbsp;&amp;nbsp;&amp;nbsp;&amp;nbsp; cnt++;&lt;/div&gt;&lt;div align=&quot;left&quot;&gt;Exit:&lt;br&gt;&lt;/div&gt;" style="text;html=1;align=left;verticalAlign=middle;resizable=0;points=[];autosize=1;strokeColor=none;fillColor=none;labelBackgroundColor=none;fontColor=#143642;rounded=1;" parent="Rk8nBQ4phRoIfl6CPApI-23" vertex="1">
          <mxGeometry x="10" y="20" width="100" height="60" as="geometry" />
        </mxCell>
        <mxCell id="Rk8nBQ4phRoIfl6CPApI-54" value="&lt;font style=&quot;font-size: 48px;&quot;&gt;按键子系统状态机&lt;/font&gt;" style="text;html=1;align=center;verticalAlign=middle;resizable=0;points=[];autosize=1;strokeColor=none;fillColor=none;fontColor=#143642;" parent="1" vertex="1">
          <mxGeometry x="370" y="-1550" width="410" height="70" as="geometry" />
        </mxCell>
      </root>
    </mxGraphModel>
  </diagram>
</mxfile>
